<svg version="1.1" id="Layer_1" xmlns="http://www.w3.org/2000/svg" xmlns:xlink="http://www.w3.org/1999/xlink" x="0px" y="0px"
	 width="100%" viewBox="0 0 865 904" enable-background="new 0 0 865 904" xml:space="preserve">
<path fill="#FEFEFE" opacity="1.000000" stroke="none" 
	d="
M866.000000,249.000000 
	C866.000000,468.000000 866.000000,686.500000 866.000000,905.000000 
	C577.666687,905.000000 289.333344,905.000000 1.000000,905.000000 
	C1.000000,603.666687 1.000000,302.333344 1.000000,1.000000 
	C289.333344,1.000000 577.666687,1.000000 866.000000,1.000000 
	C866.000000,83.500000 866.000000,166.000000 866.000000,249.000000 
M11.869073,209.962524 
	C11.732414,212.122391 11.486898,214.281723 11.476617,216.442184 
	C11.405367,231.414856 11.383047,246.387741 11.057542,262.212311 
	C10.992512,277.201508 10.905954,292.190643 10.872631,307.179932 
	C10.858528,313.523102 11.419598,314.102997 17.686554,314.103607 
	C34.679363,314.105194 51.672413,313.977020 68.664955,314.030487 
	C122.973511,314.201385 177.281998,314.406555 231.590057,314.689362 
	C235.553619,314.710022 238.122253,314.136719 238.784256,309.405670 
	C240.867615,294.516693 244.962585,280.150970 251.031723,266.367462 
	C251.546982,265.197266 251.780365,263.902985 252.370529,261.899780 
	C249.651550,261.666748 247.417435,261.302917 245.184341,261.309021 
	C190.043503,261.459595 134.902786,261.655853 79.761948,261.805389 
	C77.808533,261.810669 75.854042,261.421844 74.118507,260.267792 
	C73.764389,245.176163 73.460922,230.082932 72.985710,214.995117 
	C72.932236,213.297195 71.908096,211.629852 72.134819,209.499771 
	C76.107925,209.260391 80.081070,208.813660 84.054138,208.814255 
	C117.330605,208.819321 150.607056,208.917816 183.883545,208.959259 
	C190.369751,208.967331 191.113541,208.218750 191.104767,201.861176 
	C191.081375,184.890564 191.019043,167.920013 191.912979,150.949265 
	C253.860352,150.949265 315.807739,150.949265 377.755096,150.949265 
	C342.703796,162.560181 311.675323,179.824890 287.013733,209.032928 
	C289.069641,209.032928 290.185242,209.033691 291.300842,209.032852 
	C334.957306,208.999710 378.613770,208.960815 422.270233,208.938965 
	C429.122803,208.935532 429.829163,209.836792 429.866455,216.809174 
	C429.945770,231.622681 430.057617,246.437790 430.373566,261.247589 
	C430.567078,270.319550 428.024902,278.371521 422.109283,285.197693 
	C419.176239,288.582245 415.935669,291.759583 412.515015,294.653351 
	C364.148163,335.570679 308.147583,357.605377 245.098038,362.099762 
	C237.282257,362.656860 236.587738,363.467010 237.653900,371.243744 
	C237.970322,373.551758 238.156754,375.878235 238.499649,378.181854 
	C243.505630,411.812653 257.283722,441.762421 276.739319,469.337280 
	C277.503784,470.420807 277.921051,471.749298 278.916260,473.836456 
	C275.914093,473.836456 273.971497,473.836914 272.028900,473.836334 
	C208.376907,473.816833 144.724915,473.794067 81.072914,473.781769 
	C73.269707,473.780273 72.926811,474.188995 72.981720,482.039978 
	C73.060944,493.367462 73.234375,504.697052 73.100273,516.022583 
	C72.943527,529.260254 73.406036,529.851440 86.609177,529.840271 
	C171.255417,529.768616 255.901642,529.697937 340.547882,529.647095 
	C343.543121,529.645264 346.600616,529.515137 349.518402,530.049438 
	C353.353210,530.751648 357.078064,532.054321 360.850189,533.098816 
	C350.457397,536.870483 340.430847,539.765625 330.355286,542.478699 
	C326.341003,543.559692 324.805573,545.781006 324.851715,550.016602 
	C325.040497,567.343445 324.931152,584.673645 324.929352,602.002563 
	C324.928528,609.875732 325.261658,610.283997 333.012695,610.275940 
	C356.505981,610.251465 379.999512,610.084045 403.492340,610.160767 
	C412.252045,610.189392 421.010071,610.738892 429.925323,611.056396 
	C430.110077,612.962769 430.347260,614.263611 430.346283,615.564331 
	C430.297333,681.214111 430.198486,746.863892 430.226807,812.513672 
	C430.228699,816.937317 431.173706,821.360596 431.039642,826.388794 
	C431.038177,842.372253 431.085968,858.355896 431.002533,874.338928 
	C430.980133,878.636292 432.817139,880.221008 437.087738,880.076233 
	C444.240784,879.833923 451.407806,880.003662 458.568939,880.000549 
	C583.638489,879.946167 708.708008,879.891968 833.777527,879.837769 
	C835.772949,879.836914 837.768372,879.837646 839.172974,879.837646 
	C836.127258,876.248657 833.563599,872.725830 830.502991,869.706665 
	C815.922180,855.323486 801.239868,841.042358 786.484863,826.837952 
	C785.056580,825.463013 782.896545,824.067871 781.047974,824.029236 
	C759.575745,823.579590 738.098022,823.389282 716.556274,822.177246 
	C716.652771,810.681458 717.075500,799.177429 716.786682,787.691284 
	C715.774902,747.449097 706.092590,709.313293 687.412354,673.671875 
	C651.350891,604.867554 593.702332,562.721375 520.639160,540.032593 
	C511.027374,537.047791 501.089996,535.111511 490.843414,532.575745 
	C493.970764,531.203064 496.741486,530.105225 499.409912,528.798462 
	C576.693054,490.952728 621.585083,408.544373 611.128174,323.182098 
	C604.250183,267.035797 577.413574,222.181213 532.830139,187.835648 
	C505.465698,166.754974 474.276642,154.622345 440.149353,149.855774 
	C430.920319,148.566772 430.365356,148.018158 430.286194,138.490784 
	C430.132477,119.994133 430.056396,101.496834 430.494232,82.513969 
	C433.896576,82.222244 437.298706,81.678665 440.701294,81.675591 
	C528.171936,81.596481 615.642639,81.568016 703.113281,81.544762 
	C729.102417,81.537857 755.092285,81.661110 781.079529,81.447357 
	C783.564331,81.426910 786.673645,80.043449 788.408752,78.246025 
	C804.145203,61.945248 819.645020,45.415985 835.190186,28.930988 
	C835.884705,28.194530 836.348450,27.240452 837.183228,25.994406 
	C835.546143,25.994406 834.555664,25.994421 833.565186,25.994402 
	C701.441589,25.991753 569.318054,25.987654 437.194458,25.990705 
	C430.535370,25.990860 429.658783,26.846397 429.797333,33.492966 
	C430.085480,47.316692 430.553711,61.138199 430.645111,74.962616 
	C430.657013,76.763702 428.882660,78.576591 427.018372,80.233765 
	C422.020508,80.178131 417.022614,80.071114 412.024780,80.074821 
	C361.872314,80.112007 311.719879,80.166725 261.567413,80.218239 
	C252.237854,80.227829 251.896454,79.874695 251.932404,70.772987 
	C251.984390,57.610439 251.966629,44.447521 252.055161,31.285273 
	C252.076935,28.046743 251.550140,25.914776 247.459778,25.931049 
	C208.307877,26.086811 169.155441,26.106256 129.075653,26.035334 
	C110.725304,26.077684 92.374962,26.120035 73.089500,26.020027 
	C56.107666,26.012094 39.125599,25.946327 22.144075,26.014933 
	C9.079702,26.067711 10.811227,24.373812 10.891281,36.973396 
	C11.003273,54.599361 11.625581,72.222076 11.874191,90.788261 
	C11.625792,110.370628 11.377392,129.953003 10.968029,150.372925 
	C10.968979,167.845139 10.934986,185.317535 11.016563,202.789368 
	C11.026394,204.894745 11.661833,206.997177 11.869073,209.962524 
M274.500000,879.870667 
	C305.325195,879.870667 336.150391,879.875122 366.975586,879.867065 
	C373.600983,879.865295 373.993317,879.463013 373.997620,872.710693 
	C374.014557,846.051025 374.020844,819.391296 374.027252,792.731628 
	C374.028961,785.646790 374.022797,785.739441 366.855408,785.747253 
	C310.703613,785.808533 254.551773,785.840454 198.399933,785.853577 
	C192.224030,785.854980 191.078476,784.658508 191.067352,778.595642 
	C191.041992,764.766602 191.062012,750.937439 191.017441,737.108459 
	C190.988617,728.159607 191.341095,727.801575 200.240936,727.811157 
	C255.892899,727.870911 311.544861,727.918823 367.196808,727.956543 
	C373.291290,727.960632 374.016174,727.190979 374.028656,720.975342 
	C374.058777,705.979553 374.058136,690.983643 374.105011,675.987915 
	C374.130493,667.838135 373.438141,667.075195 365.386139,667.058838 
	C330.728790,666.988342 296.071442,666.932190 261.414093,666.867065 
	C252.556656,666.850403 251.964752,666.248291 251.972763,657.650024 
	C251.999023,629.490723 252.014465,601.331421 252.018967,573.172119 
	C252.019226,571.587952 251.883911,570.003784 251.786438,567.866028 
	C250.294907,568.653870 249.297195,569.157776 248.320816,569.700012 
	C231.185226,579.216309 215.852829,591.202698 201.336243,604.264099 
	C197.533905,607.685242 193.452423,609.557739 188.276215,609.361084 
	C182.618973,609.146240 176.947708,609.296021 171.282562,609.293091 
	C120.129372,609.266296 68.976181,609.230591 17.822989,609.227661 
	C11.106025,609.227234 10.741354,609.657776 10.762635,616.329346 
	C10.807281,630.325562 10.851921,644.321899 10.933087,658.317932 
	C10.976133,665.740845 11.398268,666.147827 18.995783,666.210449 
	C39.815853,666.381958 60.635902,666.583923 81.456390,666.668762 
	C103.116943,666.757019 124.778008,666.722595 146.438843,666.741455 
	C148.212723,666.742981 149.986603,666.741638 152.758041,666.741638 
	C151.095932,670.444214 149.668976,673.206421 148.590134,676.098572 
	C144.010208,688.376404 139.150909,700.569885 135.148300,713.036499 
	C132.292374,721.931580 132.640106,722.266113 123.367348,722.256165 
	C88.543388,722.218811 53.719433,722.165527 18.895458,722.135071 
	C11.175330,722.128296 10.767777,722.575867 10.796451,730.387634 
	C10.841707,742.717651 10.873185,755.047668 10.935853,767.377625 
	C10.982557,776.566650 11.321195,776.907166 20.530413,776.903015 
	C54.688023,776.887634 88.845619,776.844116 123.003227,776.842163 
	C129.265884,776.841797 129.973709,777.584045 130.015778,783.691711 
	C130.093826,795.021240 130.102219,806.351440 130.233490,817.680298 
	C130.311584,824.419189 131.865234,825.898621 138.563217,825.878113 
	C153.058640,825.833618 167.553925,825.741272 182.049347,825.690247 
	C190.516983,825.660461 191.240173,826.455505 191.224899,834.770630 
	C191.203491,846.433289 191.224716,858.096558 191.335831,869.758545 
	C191.419632,878.553955 192.868164,879.945007 201.519241,879.940308 
	C225.512833,879.927307 249.506409,879.895203 274.500000,879.870667 
M792.709412,714.499939 
	C792.709412,717.998901 792.726868,721.497925 792.706665,724.996765 
	C792.549988,752.157532 792.371155,779.318298 792.236816,806.479187 
	C792.208801,812.152466 792.020447,817.924133 796.520996,822.384033 
	C812.854736,838.570435 829.193359,854.752014 845.556519,870.908630 
	C846.756287,872.093262 848.167175,873.064026 849.782593,874.381042 
	C849.782593,592.846924 849.782593,312.166962 849.782593,31.138103 
	C849.020142,31.676805 848.594299,31.895359 848.271790,32.217381 
	C831.170532,49.288891 814.083130,66.374397 796.980103,83.444115 
	C793.474915,86.942429 792.022339,91.129456 792.046875,96.069199 
	C792.345337,156.059097 792.770020,216.049194 792.799438,276.039429 
	C792.871033,421.859528 792.751709,567.679749 792.709412,714.499939 
M191.034714,400.499725 
	C191.097458,390.841827 191.008255,381.179565 191.288193,371.527954 
	C191.424408,366.831268 189.755234,364.991272 184.945435,365.001038 
	C128.827499,365.115021 72.709267,365.125732 16.591248,365.054474 
	C12.041070,365.048706 10.530137,366.743835 10.610962,371.252197 
	C10.855690,384.902802 10.751678,398.559875 10.761090,412.214417 
	C10.766918,420.668762 11.290732,421.213837 19.830002,421.291412 
	C21.328630,421.305023 22.827492,421.291595 24.326239,421.294556 
	C65.955719,421.376495 107.585213,421.451477 149.214661,421.545898 
	C161.370041,421.573456 173.526321,421.584534 185.680008,421.756348 
	C189.488724,421.810242 191.534653,421.011627 191.116074,416.476837 
	C190.658890,411.524078 191.026581,406.495117 191.034714,400.499725 
M708.500549,209.685074 
	C715.664856,209.718567 722.833191,209.619385 729.992065,209.834305 
	C734.430725,209.967545 736.243530,208.358566 736.204407,203.725601 
	C736.043884,184.732788 736.043030,165.736313 736.257507,146.744308 
	C736.310547,142.048981 734.586792,140.776276 730.096130,140.816742 
	C710.770752,140.990952 691.440308,141.004807 672.116943,140.722656 
	C667.473145,140.654846 666.601196,142.333328 666.659973,146.505646 
	C666.922668,165.163757 666.895447,183.825958 666.972046,202.486694 
	C666.999390,209.144363 667.584717,209.732773 674.510254,209.734207 
	C685.506958,209.736481 696.503662,209.702682 708.500549,209.685074 
M720.479248,411.742462 
	C723.645386,411.741455 726.814758,411.650452 729.976990,411.761230 
	C734.366882,411.914978 736.176392,410.137573 736.139404,405.527924 
	C735.996399,387.699402 736.022217,369.866150 736.304504,352.039734 
	C736.382080,347.137390 734.633423,345.778412 729.921387,345.834290 
	C710.760681,346.061462 691.593811,346.118683 672.434326,345.859741 
	C667.451660,345.792419 666.113892,347.497528 666.216003,352.200989 
	C666.598999,369.852570 666.679688,387.510681 666.868530,405.166412 
	C666.931152,411.022980 667.662231,411.818481 673.495117,411.819061 
	C688.825439,411.820587 704.155762,411.771210 720.479248,411.742462 
M31.500782,879.841858 
	C43.141426,879.866638 54.782707,879.829468 66.422371,879.949280 
	C70.596725,879.992249 73.039345,878.755676 73.013603,874.026550 
	C72.937584,860.057922 73.001236,846.087463 73.153442,832.119263 
	C73.195702,828.241272 71.578697,826.817688 67.777100,826.838501 
	C50.315784,826.934021 32.853184,826.942993 15.392179,826.820740 
	C11.973137,826.796875 10.667695,827.886230 10.715485,831.397339 
	C10.912393,845.863831 10.959408,860.333313 10.930052,874.801392 
	C10.922656,878.446167 12.548845,879.967468 16.034153,879.929993 
	C20.856441,879.878174 25.679188,879.869263 31.500782,879.841858 
z"/>
<path fill="#352F8A" opacity="1.000000" stroke="none" 
	d="
M130.003159,26.164799 
	C169.155441,26.106256 208.307877,26.086811 247.459778,25.931049 
	C251.550140,25.914776 252.076935,28.046743 252.055161,31.285273 
	C251.966629,44.447521 251.984390,57.610439 251.932404,70.772987 
	C251.896454,79.874695 252.237854,80.227829 261.567413,80.218239 
	C311.719879,80.166725 361.872314,80.112007 412.024780,80.074821 
	C417.022614,80.071114 422.020508,80.178131 427.536804,80.592819 
	C428.686218,81.634514 429.317169,82.317169 429.948120,82.999817 
	C430.056396,101.496834 430.132477,119.994133 430.286194,138.490784 
	C430.365356,148.018158 430.920319,148.566772 440.149353,149.855774 
	C474.276642,154.622345 505.465698,166.754974 532.830139,187.835648 
	C577.413574,222.181213 604.250183,267.035797 611.128174,323.182098 
	C621.585083,408.544373 576.693054,490.952728 499.409912,528.798462 
	C496.741486,530.105225 493.970764,531.203064 490.843414,532.575745 
	C501.089996,535.111511 511.027374,537.047791 520.639160,540.032593 
	C593.702332,562.721375 651.350891,604.867554 687.412354,673.671875 
	C706.092590,709.313293 715.774902,747.449097 716.786682,787.691284 
	C717.075500,799.177429 716.652771,810.681458 716.315552,822.800781 
	C715.063782,823.633850 714.052612,823.843384 712.568787,824.041809 
	C668.722290,824.366577 625.348572,824.702454 581.509033,825.016174 
	C559.369812,825.013184 537.696472,825.032227 515.565796,825.011108 
	C490.442047,825.007874 465.775543,825.044861 440.668030,825.067261 
	C437.377991,825.296509 434.529022,825.540283 431.680054,825.784058 
	C431.173706,821.360596 430.228699,816.937317 430.226807,812.513672 
	C430.198486,746.863892 430.297333,681.214111 430.346283,615.564331 
	C430.347260,614.263611 430.110077,612.962769 429.925323,611.056396 
	C421.010071,610.738892 412.252045,610.189392 403.492340,610.160767 
	C379.999512,610.084045 356.505981,610.251465 333.012695,610.275940 
	C325.261658,610.283997 324.928528,609.875732 324.929352,602.002563 
	C324.931152,584.673645 325.040497,567.343445 324.851715,550.016602 
	C324.805573,545.781006 326.341003,543.559692 330.355286,542.478699 
	C340.430847,539.765625 350.457397,536.870483 360.850189,533.098816 
	C357.078064,532.054321 353.353210,530.751648 349.518402,530.049438 
	C346.600616,529.515137 343.543121,529.645264 340.547882,529.647095 
	C255.901642,529.697937 171.255417,529.768616 86.609177,529.840271 
	C73.406036,529.851440 72.943527,529.260254 73.100273,516.022583 
	C73.234375,504.697052 73.060944,493.367462 72.981720,482.039978 
	C72.926811,474.188995 73.269707,473.780273 81.072914,473.781769 
	C144.724915,473.794067 208.376907,473.816833 272.028900,473.836334 
	C273.971497,473.836914 275.914093,473.836456 278.916260,473.836456 
	C277.921051,471.749298 277.503784,470.420807 276.739319,469.337280 
	C257.283722,441.762421 243.505630,411.812653 238.499649,378.181854 
	C238.156754,375.878235 237.970322,373.551758 237.653900,371.243744 
	C236.587738,363.467010 237.282257,362.656860 245.098038,362.099762 
	C308.147583,357.605377 364.148163,335.570679 412.515015,294.653351 
	C415.935669,291.759583 419.176239,288.582245 422.109283,285.197693 
	C428.024902,278.371521 430.567078,270.319550 430.373566,261.247589 
	C430.057617,246.437790 429.945770,231.622681 429.866455,216.809174 
	C429.829163,209.836792 429.122803,208.935532 422.270233,208.938965 
	C378.613770,208.960815 334.957306,208.999710 291.300842,209.032852 
	C290.185242,209.033691 289.069641,209.032928 287.013733,209.032928 
	C311.675323,179.824890 342.703796,162.560181 377.755096,150.949265 
	C315.807739,150.949265 253.860352,150.949265 191.455521,150.970184 
	C190.998062,150.991104 191.019028,151.034683 191.026611,150.563751 
	C190.908020,132.286224 190.781830,114.479652 190.747574,96.286049 
	C191.818939,90.819489 188.761215,89.958427 184.736908,89.966805 
	C168.963379,89.999672 153.189743,90.007370 137.416183,89.993454 
	C130.846329,89.987663 130.011017,89.133102 130.005508,82.452087 
	C129.990067,63.689671 130.002014,44.927231 130.003159,26.164799 
z"/>
<path fill="#F4D03F" opacity="1.000000" stroke="none" 
	d="
M274.000000,879.870605 
	C249.506409,879.895203 225.512833,879.927307 201.519241,879.940308 
	C192.868164,879.945007 191.419632,878.553955 191.335831,869.758545 
	C191.224716,858.096558 191.203491,846.433289 191.224899,834.770630 
	C191.240173,826.455505 190.516983,825.660461 182.049347,825.690247 
	C167.553925,825.741272 153.058640,825.833618 138.563217,825.878113 
	C131.865234,825.898621 130.311584,824.419189 130.233490,817.680298 
	C130.102219,806.351440 130.093826,795.021240 130.015778,783.691711 
	C129.973709,777.584045 129.265884,776.841797 123.003227,776.842163 
	C88.845619,776.844116 54.688023,776.887634 20.530413,776.903015 
	C11.321195,776.907166 10.982557,776.566650 10.935853,767.377625 
	C10.873185,755.047668 10.841707,742.717651 10.796451,730.387634 
	C10.767777,722.575867 11.175330,722.128296 18.895458,722.135071 
	C53.719433,722.165527 88.543388,722.218811 123.367348,722.256165 
	C132.640106,722.266113 132.292374,721.931580 135.148300,713.036499 
	C139.150909,700.569885 144.010208,688.376404 148.590134,676.098572 
	C149.668976,673.206421 151.095932,670.444214 152.758041,666.741638 
	C149.986603,666.741638 148.212723,666.742981 146.438843,666.741455 
	C124.778008,666.722595 103.116943,666.757019 81.456390,666.668762 
	C60.635902,666.583923 39.815853,666.381958 18.995783,666.210449 
	C11.398268,666.147827 10.976133,665.740845 10.933087,658.317932 
	C10.851921,644.321899 10.807281,630.325562 10.762635,616.329346 
	C10.741354,609.657776 11.106025,609.227234 17.822989,609.227661 
	C68.976181,609.230591 120.129372,609.266296 171.282562,609.293091 
	C176.947708,609.296021 182.618973,609.146240 188.276215,609.361084 
	C193.452423,609.557739 197.533905,607.685242 201.336243,604.264099 
	C215.852829,591.202698 231.185226,579.216309 248.320816,569.700012 
	C249.297195,569.157776 250.294907,568.653870 251.786438,567.866028 
	C251.883911,570.003784 252.019226,571.587952 252.018967,573.172119 
	C252.014465,601.331421 251.999023,629.490723 251.972763,657.650024 
	C251.964752,666.248291 252.556656,666.850403 261.414093,666.867065 
	C296.071442,666.932190 330.728790,666.988342 365.386139,667.058838 
	C373.438141,667.075195 374.130493,667.838135 374.105011,675.987915 
	C374.058136,690.983643 374.058777,705.979553 374.028656,720.975342 
	C374.016174,727.190979 373.291290,727.960632 367.196808,727.956543 
	C311.544861,727.918823 255.892899,727.870911 200.240936,727.811157 
	C191.341095,727.801575 190.988617,728.159607 191.017441,737.108459 
	C191.062012,750.937439 191.041992,764.766602 191.067352,778.595642 
	C191.078476,784.658508 192.224030,785.854980 198.399933,785.853577 
	C254.551773,785.840454 310.703613,785.808533 366.855408,785.747253 
	C374.022797,785.739441 374.028961,785.646790 374.027252,792.731628 
	C374.020844,819.391296 374.014557,846.051025 373.997620,872.710693 
	C373.993317,879.463013 373.600983,879.865295 366.975586,879.867065 
	C336.150391,879.875122 305.325195,879.870667 274.000000,879.870605 
z"/>
<path fill="#34495E" opacity="1.000000" stroke="none" 
	d="
M792.709351,713.999878 
	C792.751709,567.679749 792.871033,421.859528 792.799438,276.039429 
	C792.770020,216.049194 792.345337,156.059097 792.046875,96.069199 
	C792.022339,91.129456 793.474915,86.942429 796.980103,83.444115 
	C814.083130,66.374397 831.170532,49.288891 848.271790,32.217381 
	C848.594299,31.895359 849.020142,31.676805 849.782593,31.138103 
	C849.782593,312.166962 849.782593,592.846924 849.782593,874.381042 
	C848.167175,873.064026 846.756287,872.093262 845.556519,870.908630 
	C829.193359,854.752014 812.854736,838.570435 796.520996,822.384033 
	C792.020447,817.924133 792.208801,812.152466 792.236816,806.479187 
	C792.371155,779.318298 792.549988,752.157532 792.706665,724.996765 
	C792.726868,721.497925 792.709412,717.998901 792.709351,713.999878 
z"/>
<path fill="#354A5F" opacity="1.000000" stroke="none" 
	d="
M430.221191,82.756897 
	C429.317169,82.317169 428.686218,81.634514 427.995483,80.667938 
	C428.882660,78.576591 430.657013,76.763702 430.645111,74.962616 
	C430.553711,61.138199 430.085480,47.316692 429.797333,33.492966 
	C429.658783,26.846397 430.535370,25.990860 437.194458,25.990705 
	C569.318054,25.987654 701.441589,25.991753 833.565186,25.994402 
	C834.555664,25.994421 835.546143,25.994406 837.183228,25.994406 
	C836.348450,27.240452 835.884705,28.194530 835.190186,28.930988 
	C819.645020,45.415985 804.145203,61.945248 788.408752,78.246025 
	C786.673645,80.043449 783.564331,81.426910 781.079529,81.447357 
	C755.092285,81.661110 729.102417,81.537857 703.113281,81.544762 
	C615.642639,81.568016 528.171936,81.596481 440.701294,81.675591 
	C437.298706,81.678665 433.896576,82.222244 430.221191,82.756897 
z"/>
<path fill="#35495E" opacity="1.000000" stroke="none" 
	d="
M431.359863,826.086426 
	C434.529022,825.540283 437.377991,825.296509 440.959595,825.342346 
	C466.474213,825.717407 491.256226,825.802856 516.502380,825.926331 
	C538.629883,825.940918 560.293213,825.917542 582.425781,825.941772 
	C624.812012,825.987061 666.729004,826.004150 708.645691,825.900940 
	C710.112488,825.897339 711.576294,824.695984 713.041504,824.052856 
	C714.052612,823.843384 715.063782,823.633850 716.348328,823.277283 
	C738.098022,823.389282 759.575745,823.579590 781.047974,824.029236 
	C782.896545,824.067871 785.056580,825.463013 786.484863,826.837952 
	C801.239868,841.042358 815.922180,855.323486 830.502991,869.706665 
	C833.563599,872.725830 836.127258,876.248657 839.172974,879.837646 
	C837.768372,879.837646 835.772949,879.836914 833.777527,879.837769 
	C708.708008,879.891968 583.638489,879.946167 458.568939,880.000549 
	C451.407806,880.003662 444.240784,879.833923 437.087738,880.076233 
	C432.817139,880.221008 430.980133,878.636292 431.002533,874.338928 
	C431.085968,858.355896 431.038177,842.372253 431.359863,826.086426 
z"/>
<path fill="#F4D03E" opacity="1.000000" stroke="none" 
	d="
M129.539398,26.100067 
	C130.002014,44.927231 129.990067,63.689671 130.005508,82.452087 
	C130.011017,89.133102 130.846329,89.987663 137.416183,89.993454 
	C153.189743,90.007370 168.963379,89.999672 184.736908,89.966805 
	C188.761215,89.958427 191.818939,90.819489 190.418274,96.432472 
	C185.783173,100.017982 187.218552,104.311211 187.393066,108.394508 
	C187.866959,119.482559 188.307953,130.573517 188.587357,141.667709 
	C188.713486,146.676041 186.109680,148.145264 181.045364,148.126266 
	C127.463181,147.925354 73.879997,147.981720 20.297144,148.026779 
	C18.572767,148.028229 16.848925,148.666687 14.726403,149.061554 
	C13.261645,149.255066 12.195319,149.395218 11.128992,149.535370 
	C11.377392,129.953003 11.625792,110.370628 12.419273,90.320755 
	C30.594515,89.910789 48.224670,89.969559 65.854836,90.025253 
	C72.986588,90.047791 73.917740,89.149048 73.933876,82.046944 
	C73.976204,63.418781 73.995895,44.790577 74.024612,26.162388 
	C92.374962,26.120035 110.725304,26.077684 129.539398,26.100067 
z"/>
<path fill="#364A5F" opacity="1.000000" stroke="none" 
	d="
M73.900055,261.216675 
	C75.854042,261.421844 77.808533,261.810669 79.761948,261.805389 
	C134.902786,261.655853 190.043503,261.459595 245.184341,261.309021 
	C247.417435,261.302917 249.651550,261.666748 252.370529,261.899780 
	C251.780365,263.902985 251.546982,265.197266 251.031723,266.367462 
	C244.962585,280.150970 240.867615,294.516693 238.784256,309.405670 
	C238.122253,314.136719 235.553619,314.710022 231.590057,314.689362 
	C177.281998,314.406555 122.973511,314.201385 68.664955,314.030487 
	C51.672413,313.977020 34.679363,314.105194 17.686554,314.103607 
	C11.419598,314.102997 10.858528,313.523102 10.872631,307.179932 
	C10.905954,292.190643 10.992512,277.201508 11.599820,261.738129 
	C32.400356,261.208801 52.658611,261.153107 72.916885,261.103546 
	C73.244514,261.102783 73.572327,261.177277 73.900055,261.216675 
z"/>
<path fill="#354A5E" opacity="1.000000" stroke="none" 
	d="
M11.048511,149.954147 
	C12.195319,149.395218 13.261645,149.255066 15.099271,149.208557 
	C19.520313,149.484299 23.169909,149.821625 26.819822,149.825089 
	C79.126633,149.874695 131.433517,149.864090 183.740250,149.942993 
	C186.167053,149.946655 188.592789,150.654694 191.019028,151.034683 
	C191.019028,151.034683 190.998062,150.991104 190.985107,150.970276 
	C191.019043,167.920013 191.081375,184.890564 191.104767,201.861176 
	C191.113541,208.218750 190.369751,208.967331 183.883545,208.959259 
	C150.607056,208.917816 117.330605,208.819321 84.054138,208.814255 
	C80.081070,208.813660 76.107925,209.260391 71.329025,209.657700 
	C51.017929,209.577408 31.512621,209.339188 12.007312,209.100983 
	C11.661833,206.997177 11.026394,204.894745 11.016563,202.789368 
	C10.934986,185.317535 10.968979,167.845139 11.048511,149.954147 
z"/>
<path fill="#354A5F" opacity="1.000000" stroke="none" 
	d="
M191.034729,400.999573 
	C191.026581,406.495117 190.658890,411.524078 191.116074,416.476837 
	C191.534653,421.011627 189.488724,421.810242 185.680008,421.756348 
	C173.526321,421.584534 161.370041,421.573456 149.214661,421.545898 
	C107.585213,421.451477 65.955719,421.376495 24.326239,421.294556 
	C22.827492,421.291595 21.328630,421.305023 19.830002,421.291412 
	C11.290732,421.213837 10.766918,420.668762 10.761090,412.214417 
	C10.751678,398.559875 10.855690,384.902802 10.610962,371.252197 
	C10.530137,366.743835 12.041070,365.048706 16.591248,365.054474 
	C72.709267,365.125732 128.827499,365.115021 184.945435,365.001038 
	C189.755234,364.991272 191.424408,366.831268 191.288193,371.527954 
	C191.008255,381.179565 191.097458,390.841827 191.034729,400.999573 
z"/>
<path fill="#F4D03F" opacity="1.000000" stroke="none" 
	d="
M708.000488,209.684601 
	C696.503662,209.702682 685.506958,209.736481 674.510254,209.734207 
	C667.584717,209.732773 666.999390,209.144363 666.972046,202.486694 
	C666.895447,183.825958 666.922668,165.163757 666.659973,146.505646 
	C666.601196,142.333328 667.473145,140.654846 672.116943,140.722656 
	C691.440308,141.004807 710.770752,140.990952 730.096130,140.816742 
	C734.586792,140.776276 736.310547,142.048981 736.257507,146.744308 
	C736.043030,165.736313 736.043884,184.732788 736.204407,203.725601 
	C736.243530,208.358566 734.430725,209.967545 729.992065,209.834305 
	C722.833191,209.619385 715.664856,209.718567 708.000488,209.684601 
z"/>
<path fill="#F4D03F" opacity="1.000000" stroke="none" 
	d="
M719.982666,411.742310 
	C704.155762,411.771210 688.825439,411.820587 673.495117,411.819061 
	C667.662231,411.818481 666.931152,411.022980 666.868530,405.166412 
	C666.679688,387.510681 666.598999,369.852570 666.216003,352.200989 
	C666.113892,347.497528 667.451660,345.792419 672.434326,345.859741 
	C691.593811,346.118683 710.760681,346.061462 729.921387,345.834290 
	C734.633423,345.778412 736.382080,347.137390 736.304504,352.039734 
	C736.022217,369.866150 735.996399,387.699402 736.139404,405.527924 
	C736.176392,410.137573 734.366882,411.914978 729.976990,411.761230 
	C726.814758,411.650452 723.645386,411.741455 719.982666,411.742310 
z"/>
<path fill="#364A5E" opacity="1.000000" stroke="none" 
	d="
M73.557053,26.091208 
	C73.995895,44.790577 73.976204,63.418781 73.933876,82.046944 
	C73.917740,89.149048 72.986588,90.047791 65.854836,90.025253 
	C48.224670,89.969559 30.594515,89.910789 12.496957,89.849716 
	C11.625581,72.222076 11.003273,54.599361 10.891281,36.973396 
	C10.811227,24.373812 9.079702,26.067711 22.144075,26.014933 
	C39.125599,25.946327 56.107666,26.012094 73.557053,26.091208 
z"/>
<path fill="#354A5F" opacity="1.000000" stroke="none" 
	d="
M31.001261,879.841919 
	C25.679188,879.869263 20.856441,879.878174 16.034153,879.929993 
	C12.548845,879.967468 10.922656,878.446167 10.930052,874.801392 
	C10.959408,860.333313 10.912393,845.863831 10.715485,831.397339 
	C10.667695,827.886230 11.973137,826.796875 15.392179,826.820740 
	C32.853184,826.942993 50.315784,826.934021 67.777100,826.838501 
	C71.578697,826.817688 73.195702,828.241272 73.153442,832.119263 
	C73.001236,846.087463 72.937584,860.057922 73.013603,874.026550 
	C73.039345,878.755676 70.596725,879.992249 66.422371,879.949280 
	C54.782707,879.829468 43.141426,879.866638 31.001261,879.841919 
z"/>
<path fill="#F3D03F" opacity="1.000000" stroke="none" 
	d="
M11.938192,209.531754 
	C31.512621,209.339188 51.017929,209.577408 70.928658,209.881973 
	C71.908096,211.629852 72.932236,213.297195 72.985710,214.995117 
	C73.460922,230.082932 73.764389,245.176163 74.009277,260.742249 
	C73.572327,261.177277 73.244514,261.102783 72.916885,261.103546 
	C52.658611,261.153107 32.400356,261.208801 11.743561,261.312256 
	C11.383047,246.387741 11.405367,231.414856 11.476617,216.442184 
	C11.486898,214.281723 11.732414,212.122391 11.938192,209.531754 
z"/>
<path fill="#9AA4AC" opacity="1.000000" stroke="none" 
	d="
M191.026611,150.563751 
	C188.592789,150.654694 186.167053,149.946655 183.740250,149.942993 
	C131.433517,149.864090 79.126633,149.874695 26.819822,149.825089 
	C23.169909,149.821625 19.520313,149.484299 15.497702,149.155197 
	C16.848925,148.666687 18.572767,148.028229 20.297144,148.026779 
	C73.879997,147.981720 127.463181,147.925354 181.045364,148.126266 
	C186.109680,148.145264 188.713486,146.676041 188.587357,141.667709 
	C188.307953,130.573517 187.866959,119.482559 187.393066,108.394508 
	C187.218552,104.311211 185.783173,100.017982 190.326355,96.819496 
	C190.781830,114.479652 190.908020,132.286224 191.026611,150.563751 
z"/>
<path fill="#626A90" opacity="1.000000" stroke="none" 
	d="
M712.568787,824.041748 
	C711.576294,824.695984 710.112488,825.897339 708.645691,825.900940 
	C666.729004,826.004150 624.812012,825.987061 582.438965,825.728394 
	C581.982910,825.467285 581.974792,825.038269 581.974792,825.038269 
	C625.348572,824.702454 668.722290,824.366577 712.568787,824.041748 
z"/>
<path fill="#6A7391" opacity="1.000000" stroke="none" 
	d="
M516.038208,825.888367 
	C491.256226,825.802856 466.474213,825.717407 441.400635,825.356873 
	C465.775543,825.044861 490.442047,825.007874 515.562866,825.220337 
	C516.017212,825.469727 516.038208,825.888367 516.038208,825.888367 
z"/>
<path fill="#808D9A" opacity="1.000000" stroke="none" 
	d="
M516.502380,825.926331 
	C516.038208,825.888367 516.017212,825.469727 516.020142,825.260498 
	C537.696472,825.032227 559.369812,825.013184 581.509033,825.016174 
	C581.974792,825.038269 581.982910,825.467285 581.969727,825.680664 
	C560.293213,825.917542 538.629883,825.940918 516.502380,825.926331 
z"/>
</svg>